<?xml version="1.0" encoding="UTF-8"?>
<svg xmlns="http://www.w3.org/2000/svg" version="1.1" viewBox="0 0 137 36">
  <defs>
    <style>
      .cls-1 {
        fill: #a0a0a0;
      }

      .cls-2 {
        fill: #6d6d6d;
      }
    </style>
  </defs>
  <!-- Generator: Adobe Illustrator 28.7.1, SVG Export Plug-In . SVG Version: 1.2.0 Build 142)  -->
  <g>
    <g id="Capa_1">
      <path class="cls-1" d="M0,33.8V2L6.4.3v19.5l10.4-10.2h7.2l-11.4,11.1,12.1,13.1h-8.1l-10.2-11v8.2c0,1.6-1.3,2.8-2.8,2.8H0Z"/>
      <path class="cls-1" d="M33.3,34.3c-1.7,0-3.3-.3-4.6-.9-1.3-.6-2.4-1.5-3.1-2.6-.7-1.1-1.1-2.4-1.1-3.8,0-2.3.9-4.1,2.6-5.4s4.2-1.9,7.2-1.9,4.1.3,5.9,1v-1.8c0-1.4-.4-2.4-1.3-3.2-.9-.7-2.1-1.1-3.8-1.1s-2.1.2-3.3.5-2.5.8-4.1,1.5l-2.3-4.7c1.9-.9,3.7-1.5,5.5-1.9,1.7-.4,3.5-.6,5.3-.6,3.2,0,5.8.8,7.6,2.3,1.8,1.6,2.7,3.8,2.7,6.6v12.8c0,1.6-1.3,2.9-2.9,2.9h-3.4v-1.7c-1,.7-2.1,1.3-3.2,1.6-1.1.3-2.4.5-3.8.5h0ZM30.6,26.7c0,.9.4,1.7,1.2,2.2.8.5,1.9.8,3.2.8s2-.1,2.9-.4c.9-.3,1.7-.7,2.4-1.2v-3.5c-.8-.3-1.6-.5-2.4-.7-.8-.2-1.7-.2-2.7-.2-1.5,0-2.6.3-3.4.8-.8.5-1.2,1.3-1.2,2.2h0Z"/>
      <path class="cls-1" d="M60.4,34.3c-2.2,0-4.3-.3-6.2-.9-1.9-.6-3.5-1.4-4.9-2.5l3.2-4.2c1.4.9,2.7,1.6,4,2.1s2.6.7,3.8.7,2.6-.2,3.4-.7c.8-.5,1.3-1.1,1.3-1.9s-.2-1.1-.7-1.5c-.5-.4-1.2-.6-2.3-.8l-4.6-.7c-2.4-.4-4.2-1.2-5.5-2.3-1.2-1.2-1.9-2.8-1.9-4.7s.4-2.9,1.2-4.1c.8-1.1,2-2,3.5-2.6,1.5-.6,3.3-.9,5.4-.9s3.5.2,5.2.7c1.7.5,3.3,1.3,4.8,2.3l-3.1,4.1c-1.3-.8-2.6-1.4-3.8-1.8-1.2-.4-2.4-.6-3.7-.6s-2.1.2-2.8.6c-.7.4-1,1-1,1.7s.2,1.2.7,1.5c.5.4,1.3.6,2.5.8l4.6.7c2.4.3,4.2,1.1,5.5,2.3,1.3,1.2,1.9,2.7,1.9,4.6s-.5,2.9-1.4,4.1c-.9,1.2-2.2,2.1-3.8,2.8-1.6.7-3.4,1-5.4,1h0Z"/>
      <path class="cls-1" d="M74.1,33.8V1.9l6.4-1.9v11.7c1.8-1.6,4.1-2.5,6.8-2.5s3.5.4,5,1.2c1.4.8,2.6,1.9,3.4,3.4.8,1.4,1.2,3.1,1.2,5v12.2c0,1.5-1.3,2.8-2.8,2.8h-3.5v-14.1c0-1.6-.4-2.8-1.3-3.7-.9-.9-2.1-1.4-3.7-1.4s-2,.2-2.9.6c-.8.4-1.5,1-2.1,1.8v13.9c0,1.6-1.3,2.9-2.9,2.9h-3.5Z"/>
      <path class="cls-2" d="M104.8,7.2c-1,0-1.8-.4-2.5-1.1s-1.1-1.6-1.1-2.5.4-1.9,1.1-2.6c.7-.7,1.6-1,2.5-1s1.9.3,2.6,1c.7.7,1,1.6,1,2.6s-.3,1.8-1,2.5c-.7.7-1.6,1.1-2.6,1.1ZM101.6,34.3V10.1h6.4v21.2c0,1.6-1.3,3-3,3h-3.4Z"/>
      <path class="cls-2" d="M123.9,35.1c-2.4,0-4.6-.6-6.5-1.7-1.9-1.1-3.5-2.6-4.6-4.5-1.1-1.9-1.7-4-1.7-6.4s.6-4.5,1.7-6.4c1.1-1.9,2.7-3.4,4.6-4.5,2-1.1,4.2-1.7,6.6-1.7s4.6.6,6.6,1.7c2,1.1,3.5,2.6,4.6,4.5,1.1,1.9,1.7,4,1.7,6.4s-.6,4.5-1.7,6.4c-1.1,1.9-2.7,3.4-4.6,4.5-1.9,1.1-4.1,1.7-6.6,1.7ZM123.9,29.6c1.3,0,2.4-.3,3.4-.9,1-.6,1.8-1.5,2.4-2.5.6-1.1.9-2.2.9-3.5s-.3-2.5-.9-3.6-1.4-1.9-2.4-2.5c-1-.6-2.1-.9-3.4-.9s-2.4.3-3.4.9c-1,.6-1.8,1.5-2.4,2.5-.6,1.1-.9,2.2-.9,3.6s.3,2.5.9,3.5c.6,1.1,1.4,1.9,2.4,2.5,1,.6,2.1.9,3.4.9Z"/>
    </g>
  </g>
</svg>