<?xml version="1.0" encoding="UTF-8"?>
<svg xmlns="http://www.w3.org/2000/svg" version="1.1" viewBox="0 0 302 165">
  <defs>
    <style>
      .cls-1 {
        fill: #6d6d6d;
      }

      .cls-2 {
        fill: #afafaf;
      }
    </style>
  </defs>
  <!-- Generator: Adobe Illustrator 28.7.1, SVG Export Plug-In . SVG Version: 1.2.0 Build 142)  -->
  <g>
    <g id="Capa_1">
      <path class="cls-1" d="M141.1,111c5.4-1.6,5.7-2.2,3.4-7.1-4.1-8.9-10.2-16.5-16.7-23.8-1.5-1.7-2.6-2.1-4.2-.1-2.2,2.7-4.6,5.2-6.9,7.7-2.7,6-2.3,12.1-.2,18.2.7,3.1,2.3,5,5.7,5,2.9,0,3.1,1.9,3,4,0,2.2.6,5-3.2,4.7-6.2-1.8-12.5-.6-18.7-.8-7.3-.2-7.3,0-7.1-7.3,2.6-1,6.2,0,7.6-3.6,1.7-1.2,1.3-2.9,1.3-4.5,0-17.1,0-34.1,0-51.2,0-1.6.5-3.4-1.2-4.5-1.5-3.5-5-2.8-7.7-3.7-.2-1.7.6-3.6-.9-5.1,0-.7,0-1.4,0-2,8.2,0,16.4,0,24.6,0,2.1,0,3.9.2,5.2,2,.7,3.2.7,5.9-3.8,5.9-2.5,0-3.8,1.6-4.6,3.8-3.3,4.9-.7,10.4-1.5,15.6-.2,1.2,0,2.3,1.5,2.7.2,1.9.3,3.8.6,6.8,9-10.2,18.9-18.1,26.9-28.1-2.1-1.6-4.2-.9-6.1-1.6.2-7.6-1.2-6.9,7.3-7.1,6.6-.2,13.2,1,19.7-.8,2.3,6.3,1.7,7.6-3.9,8.5-2.4.4-4.3,1.6-6,3.3-6.3,6.4-12.5,12.9-18.9,19.1-1.9,1.8-1.7,2.8,0,4.6,9.2,10.1,17.3,21,22.1,34,.7,2,2,4.3,4.2,4.7,5.7.9,4.9,4.6,4.1,8.4-8.2,0-16.5.1-24.7.1-1.4,0-3.3.5-3.6-1.6-.3-1.7-.9-3.7,1.7-4.5.5-.2.8-1,1.1-1.5Z"/>
      <path class="cls-1" d="M272.1,119.4c-.7,0-1.4,0-2.1,0-.3-.5-.6-.5-.9,0-.7,0-1.4,0-2,0-.3-.3-.6-.6-1-.9,0-.7,0-1.3,0-2,.9-.7.9-1.7.9-2.7,0-8.7,0-17.5,0-26.2,0-1.2,0-2.3-1.2-3-.2-.6-.7-1.2-.7-1.8-1.3-12.7-12.3-12.4-19.1-6.9-4.2,3.5-5.7,8.3-6.8,13.3-.2-.3-.4-.6-.6-.8,0,0-.3,0-.5,0,.3,5.7-1.6,11.6,1.1,17.2.9,4.1,4.4,4.7,7.7,5.6.1,7.2,0,7-7.2,7.3-6.2.2-12.6-1-18.7.8-.7,0-1.4,0-2,0,0-2.7,0-5.4,0-8.2,3.5-.7,7-1.4,7.9-5.7,1.1-.5,1.2-1.4,1.2-2.4,0-8.5,0-17.1,0-25.6,0-1.2,0-2.3-1.3-2.8-.9-2.8-3.1-4.1-5.7-5.1-1-1-1.9-2-2.9-2.9,0-1,0-2,0-3,2.3-1.4,4.8-.7,7.3-1,2.9-.3,6,1.1,8.6-1,5.9-.1,4.6,4.8,5.3,7.9,1.5.5,1.9-.6,2.2-1.1,6.6-12.2,26.7-9.3,33.3,3.1,3,5.7,3.9,11.9,4.1,18.2.2,4.3,0,8.6,0,12.9,0,6.1,1.2,7.5,7,8.7,0,2.7,0,5.4,0,8.1-.7,0-1.4,0-2.1,0-4-1.4-7.9-1.4-11.9,0Z"/>
      <path class="cls-1" d="M178.2,115.6c0-1,0-2,0-3.1.3-.4.7-.8,1-1.3,3-.8,6.5-.9,7.6-4.8,1.8-.9,1.3-2.5,1.3-3.9,0-7,0-14,0-20.9,0-1.4.4-3.1-1.2-4.1-.3-4.2-1.5-7.2-6.6-8-4-.6-1.9-4.4-2.1-6.9,2-.3,4.2.9,5.9-1.1,3,0,6,0,8.9,0,5.1.8,5.2,4.3,5.1,8.5-.3,10.2-.1,20.4,0,30.7,0,1.7-.6,3.7,1.2,5,.7,3.2,2.7,4.8,5.8,5.4.4,1.6,1.6,1.5,2.9,1.5,0,1,0,2,0,3-1.1,2.2-2.7,3-5.4,3.1-7.2.2-14.4-1.2-21.5.8-.7,0-1.4,0-2,0,0-1.3.5-2.8-.9-3.8Z"/>
      <path class="cls-1" d="M291.5,144.8c-.5,0-1.8,0-2.7-.4-1.5-.7-4.4-1.5-3.4-3.4,1.4-2.6,2.3,1,3.6,1.3,1.6.4,3.2.6,4.9.4,1.5-.2,2.6-1,2.5-2.5,0-1.2-.8-2.1-2.1-2.4-1.6-.4-3.2-.7-4.8-1.1-2.2-.6-4.1-1.9-4-4.4,0-2.6,1.7-4.1,4.3-4.8,2.1-.5,4-.3,5.8.5,1.2.6,3.4,1.6,2.4,3.1-1.1,1.7-2-.6-3-1.1-1.5-.7-3.1-1.2-4.8-.6-1.2.4-2.1,1-2.2,2.4,0,1.3.7,2.2,1.9,2.6,1.2.4,2.5.8,3.8,1,3,.6,5.7,1.6,5.1,5.3-.6,3.4-3.4,4.2-7.1,4.2Z"/>
      <path class="cls-1" d="M272.1,139.6c-1.1,4.2-3.3,5.6-7.6,5.1-3.6-.4-5.8-2.7-6.4-6-.8-4-.6-8.1,3.5-10.5,2.9-1.7,6-1.7,8.9.3.9.6,2.2,1.4,1.2,2.7-.6.9-1.4,0-2-.5-3.1-2.9-6-2.3-8.5.8-2.1,2.6-1.6,8.1.9,10,3.2,2.3,6.1,1.7,8.6-1.4.2-.2.6-.2,1.4-.5Z"/>
      <path class="cls-1" d="M122,142.7c-2.4-3.5-4.8-7.1-7.8-11.4v12.4c-2.3.1-2.4-1-2.4-2.2,0-3.3-.1-6.7,0-10,0-1.4-1.2-3.6,1.3-4.1,1.9-.4,2.3,1.6,3.1,2.7,2.7,3.5,4,8,7.6,10.9-.6.6-1.2,1.2-1.9,1.8Z"/>
      <path class="cls-1" d="M214.1,128.3c5.3-1.3,10-1.1,14.9-.8-.2.9-.4,1.4-.4,1.4-5.6-.3-6.1,2.9-5.7,7.4.2,2.7.9,5.7-1.1,8.7-1.8-2.4-1-4.8-1.1-6.9-.3-4.4,2.1-10.2-6.5-9.8Z"/>
      <path class="cls-1" d="M145.1,129.6c.9-3.1,2.6-1.5,3.2-.1,2.1,4.7,3.8,9.6,5.3,14.7-2.9-1.2-3-5.1-7.5-4.9-4.1.2-4.5,3.3-6.9,5,1.2-4.3,1.3-8.8,4.9-11.9.7,1.7-.6,3.2-.6,5.1,1.9-.3,5,1.7,5.2-1.2.1-2.1-.2-5.7-3.6-6.8Z"/>
      <path class="cls-1" d="M89,129.6c1.5-2.7,3-3,4.3.2,1.5,3.8,3,7.7,4.6,11.5.3.7.8,1.6-.2,2.1-1.1.6-1.2-.5-1.6-1.1-2.6-4-7.9-3.7-10.1.5-.3.5-.7,1-2,2.7.3-6.1,2.8-9.9,4.2-14.1,1.1.1,1.5,1,1.1,1.8-2.9,6.3,1.5,4.4,4.6,4.3q-1.9-6.6-4.9-7.9Z"/>
      <path class="cls-1" d="M199.3,105.7c-1.9-1.3-1.2-3.3-1.2-5,0-10.2-.2-20.4,0-30.7.1-4.2,0-7.7-5.1-8.5,6.5-.4,6.5-.4,6.5,5.9,0,12.7-.2,25.5-.2,38.2Z"/>
      <path class="cls-1" d="M226.7,74.7c1.4.5,1.3,1.7,1.3,2.8,0,8.5,0,17.1,0,25.6,0,1-.1,2-1.2,2.4,0-10.3,0-20.6-.1-30.9Z"/>
      <path class="cls-1" d="M103.9,47.5c1.7,1.2,1.2,2.9,1.2,4.5,0,17.1,0,34.1,0,51.2,0,1.6.4,3.4-1.3,4.5,0-20.1,0-40.2,0-60.3Z"/>
      <path class="cls-1" d="M179,144.5c-3.3,0-6.5,0-9.8,0-1,0-2,0-2-1.5,0-5.2,0-10.3.7-15.5,2,3.5,1.4,7.2,1.2,10.8-.2,3.6,1,4.7,4.5,4.3,1.8-.2,3.8-.6,5.5.5,0,.5,0,.9,0,1.4Z"/>
      <path class="cls-1" d="M198.2,136.8c-.1,2.5-.3,5.1-.5,8.7-3-3.4-.7-7.1-3-9.8-1.9-2.3-3.1-5.1-5.4-8.9,4.6,2,5.3,5.3,6.7,8,.7.7,1.4,1.4,2.1,2.1Z"/>
      <path class="cls-1" d="M141.1,111c-.4.5-.6,1.3-1.1,1.5-2.5.8-1.9,2.8-1.7,4.5.3,2.1,2.2,1.6,3.6,1.6,8.2,0,16.5,0,24.7-.1-.8,2-2.6,1.1-3.9,1.1-7.1,0-14.2,0-21.3,0-2,0-4.9,1.1-4.5-3,.3-2.9-.8-6.4,4.2-5.6Z"/>
      <path class="cls-1" d="M165.1,35.9c-6.5,1.8-13.1.6-19.7.8-8.5.2-7.1-.4-7.3,7.1-2.6-6.5-1.7-8.1,4.7-8.1,7.4,0,14.8.1,22.3.2Z"/>
      <path class="cls-1" d="M122,142.7c.6-.6,1.2-1.2,1.9-1.8-.4-4.4-.5-8.8,0-13.1.5,0,.9,0,1.4,0,0,5.2.5,10.4-.2,15.5-.3,2.4-2.3,1.3-3-.5Z"/>
      <path class="cls-1" d="M242.3,144.4v-16.8c.3,0,.7,0,1,0v16.8c-.3,0-.7,0-1,0Z"/>
      <path class="cls-1" d="M221.1,119.4c6.2-1.8,12.5-.6,18.7-.8,7.3-.2,7.3,0,7.2-7.3,2.8,6.4,1.8,8.2-4.5,8.2-7.1,0-14.2,0-21.4-.1Z"/>
      <path class="cls-1" d="M96.2,111.4c-.1,7.2-.1,7,7.1,7.3,6.2.2,12.6-1.1,18.7.8-7.1,0-14.2.1-21.3.1-6.3,0-7.3-1.8-4.5-8.2Z"/>
      <path class="cls-1" d="M125.1,38.6c-1.3-1.8-3.1-2-5.2-2-8.2,0-16.4,0-24.6,0,.3-1.5,1.5-1,2.3-1,8.2,0,16.5,0,24.7,0,2.3,0,3.5.5,2.8,3Z"/>
      <path class="cls-1" d="M116.7,66.6c-1.4-.4-1.7-1.5-1.5-2.7.8-5.2-1.8-10.7,1.5-15.6,0,6.1,0,12.2,0,18.3Z"/>
      <path class="cls-1" d="M265.9,84.7c1.2.7,1.2,1.9,1.2,3,0,8.7,0,17.5,0,26.2,0,1,0,2-.9,2.7,0-10.6-.1-21.3-.2-31.9Z"/>
      <path class="cls-1" d="M116.6,105.8c-2.1-6.1-2.5-12.1.2-18.2,0,6.1-.1,12.1-.2,18.2Z"/>
      <path class="cls-1" d="M181.1,119.4c7.1-1.9,14.3-.6,21.5-.8,2.6,0,4.3-.8,5.4-3.1.6,2.8,0,4.2-3.4,4-7.8-.3-15.6-.2-23.5-.2Z"/>
      <path class="cls-1" d="M239.4,105.7c-2.7-5.6-.8-11.5-1.1-17.2.2,0,.4,0,.5,0,.2.2.4.5.6.8.6,5.5.4,10.9,0,16.4Z"/>
      <path class="cls-1" d="M186.9,77.6c1.5,1,1.1,2.6,1.2,4.1,0,7,0,14,0,20.9,0,1.4.5,3.1-1.3,3.9,0-9.7.1-19.3.2-29Z"/>
      <path class="cls-1" d="M198.2,136.8c-.7-.7-1.4-1.4-2.1-2.1,2.9-.1,2.5-3,3.9-4.5,1-1,1-3.4,4-2.6-2,3.2-3.9,6.1-5.8,9.1Z"/>
      <path class="cls-1" d="M234.1,61.6c-2.7,2.1-5.8.7-8.6,1-2.4.3-5-.4-7.3,1-.5-2.4,1.2-2.2,2.7-2.2,4.4,0,8.8.1,13.3.2Z"/>
      <path class="cls-1" d="M272.1,119.4c4-1.3,7.9-1.4,11.9,0-4,0-7.9,0-11.9,0Z"/>
      <path class="cls-1" d="M219,111.3c0,2.7,0,5.4,0,8.2-1.8-2.7-1.5-5.4,0-8.2Z"/>
      <path class="cls-1" d="M286,119.5c0-2.7,0-5.4,0-8.1,2.2,2.7,2.1,5.4,0,8.1Z"/>
      <path class="cls-1" d="M184.1,61.6c-1.7,1.9-3.9.8-5.9,1.1,1.6-2.4,3.9-.9,5.9-1.1Z"/>
      <path class="cls-1" d="M218.2,66.7c1,1,1.9,2,2.9,2.9-2.4.5-3.5-.4-2.9-2.9Z"/>
      <path class="cls-1" d="M95.3,38.7c1.5,1.5.6,3.4.9,5.1-2-1.4-.6-3.4-.9-5.1Z"/>
      <path class="cls-1" d="M178.2,115.6c1.4,1,.8,2.5.9,3.8-2.1-.9-.7-2.5-.9-3.8Z"/>
      <path class="cls-1" d="M208,112.6c-1.2,0-2.5,0-2.9-1.5,1.1.2,2.8-.7,2.9,1.5Z"/>
      <path class="cls-1" d="M179.2,111.3c-.3.4-.7.8-1,1.3,0-.7,0-1.4,1-1.3Z"/>
      <path class="cls-1" d="M266.1,118.6c.3.3.6.6,1,.9-.7,0-1.1-.1-1-.9Z"/>
      <path class="cls-1" d="M269.1,119.4c.3-.5.6-.5.9,0h-.5c0,.1-.5,0-.5,0Z"/>
      <polygon class="cls-2" points="46 47.5 46 62.5 59 69.9 72 62.5 72 47.5 59 40 46 47.5"/>
      <polygon class="cls-2" points="180.8 39.7 180.8 49.3 189 54 197.2 49.3 197.2 39.7 189 35 180.8 39.7"/>
      <polygon class="cls-1" points="31 22.5 31 37.5 44 44.9 57 37.5 57 22.5 44 15 31 22.5"/>
      <polygon class="cls-1" points="31 124.5 31 139.5 44 146.9 57 139.5 57 124.5 44 117 31 124.5"/>
      <polygon class="cls-1" points="16 47.5 16 62.5 29 69.9 42 62.5 42 47.5 29 40 16 47.5"/>
      <polygon class="cls-1" points="46 98.5 46 113.5 59 120.9 72 113.5 72 98.5 59 91 46 98.5"/>
      <polygon class="cls-1" points="16 98.5 16 113.5 29 120.9 42 113.5 42 98.5 29 91 16 98.5"/>
      <polygon class="cls-1" points="31 73.5 31 88.5 44 95.9 57 88.5 57 73.5 44 66 31 73.5"/>
      <polygon class="cls-1" points="60 73.5 60 88.5 73 95.9 86 88.5 86 73.5 73 66 60 73.5"/>
      <polygon class="cls-1" points="1 73.5 1 88.5 14 95.9 27 88.5 27 73.5 14 66 1 73.5"/>
    </g>
  </g>
</svg>