<?xml version="1.0" encoding="UTF-8"?>
<svg xmlns="http://www.w3.org/2000/svg" version="1.1" viewBox="0 0 114 26">
  <defs>
    <style>
      .cls-1 {
        fill: #6d6d6d;
      }

      .cls-2 {
        fill: #afafaf;
      }
    </style>
  </defs>
  <!-- Generator: Adobe Illustrator 28.7.1, SVG Export Plug-In . SVG Version: 1.2.0 Build 142)  -->
  <g>
    <g id="Capa_1">
      <g>
        <path class="cls-2" d="M12.2,5.9c-1.4,4.6-1.8,4.8-4.3,2.5-1.6-1.5-1.8-1.2-2.4,4-.7,5.1-.5,5.8,1.6,7.5,5.5,4.6,6.6,4.7,10.7,1.4,3.1-2.6,3.7-3.6,3.4-6.4-.4-5.2-1-6.5-2.5-5-.9,1-1.6.2-3.3-3.5l-2-4.6-1.2,4.1Z"/>
        <path class="cls-1" d="M29,12.4c0,3.7.4,6.6,1,6.6s1-1.1,1-2.4c0-1.9.6-2.5,2.6-2.8,6.3-.7,5.5-7.1-1-7.6l-3.6-.3v6.5ZM35.5,10c0,.8-1,1.6-2.2,1.8-1.8.3-2.3-.2-2.3-1.8s.5-2.1,2.3-1.8,2.2,1,2.2,1.8Z"/>
        <path class="cls-1" d="M86.3,9c-.8,1.2-1,2.7-.4,4.2.9,2.5,1.1,3.2,1.1,4.8s.8,1,1.7,1c1.3,0,1.4-.3.5-1.2-1.6-1.6-1.5-5.5.1-6.1.8-.4.9-.8.1-1.4-.6-.4-1.3-1.4-1.5-2.1-.3-.8-.8-.6-1.6.8Z"/>
        <path class="cls-1" d="M40,14.6c0,2.4.5,4.4,1,4.4s1-1.4,1-3,.6-3.3,1.5-3.6c2.3-.9,1.8-2.2-1-2.2s-2.5.4-2.5,4.4Z"/>
        <path class="cls-1" d="M48.2,11.2c-2,2-1.5,6.6.9,7.8,1.6.9,2.6.8,4.5-.5,4.1-2.7,2.7-8.5-2.1-8.5s-2.6.5-3.3,1.2ZM53.5,15c0,3.8-3.9,3.5-4.3-.3-.3-2.5,0-2.8,2-2.5,1.7.2,2.3.9,2.3,2.8Z"/>
        <path class="cls-1" d="M58.5,10.8c-.9.9-.5,8.2.4,8.2s1.1-1.5,1.3-3.2c.2-2.2.9-3.4,2.1-3.6,1.4-.3,1.7.4,1.7,3.2,0,4.5,1.8,4.8,2.2.4s.9-3.4,2.1-3.6c1.4-.3,1.7.4,1.7,3.2s.5,3.6,1.1,3.6.9-1.7.7-4.3l-.3-4.2h-6.2c-3.5-.1-6.5.1-6.8.3Z"/>
        <path class="cls-1" d="M76.2,11.2c-3.6,3.6.4,10.1,4.8,7.8,2.7-1.4,2.5-1.9-.6-1.7-1.5.1-2.9-.4-3.1-1.1-.3-.8.6-1.2,2.6-1.2s3.1-.4,3.1-1.9c0-2.9-4.5-4.2-6.8-1.9ZM81,13c0,.5-.9,1-2,1s-2-.5-2-1,.9-1,2-1,2,.4,2,1Z"/>
        <path class="cls-1" d="M93,11.9c-1.6,3.1-1.2,4.9,1.4,6.6,1.9,1.3,2.9,1.4,4.6.5,1.1-.6,1.8-1.5,1.4-2.1s-1.1-.6-2,.2c-1.5,1.2-4.4.6-4.4-1.1s1.6-1,3.5-1,3.5-.5,3.5-1.3c0-3.7-6.2-5.1-8-1.8ZM99,13c0,.5-1.2,1-2.6,1s-2.3-.4-1.9-1c.3-.6,1.5-1,2.6-1s1.9.4,1.9,1Z"/>
        <path class="cls-1" d="M104.2,11.2c-2,2-1.4,6.6.9,7.9,3.3,1.7,6.9-.3,6.9-3.9s-1.6-5.2-4.5-5.2-2.6.5-3.3,1.2ZM109.5,15c0,2.9-3.2,4.1-4.1,1.6-.9-2.4.4-4.8,2.3-4.4,1.2.2,1.8,1.2,1.8,2.8Z"/>
      </g>
    </g>
  </g>
</svg>