<?xml version="1.0" encoding="UTF-8"?>
<svg xmlns="http://www.w3.org/2000/svg" version="1.1" xmlns:xlink="http://www.w3.org/1999/xlink" viewBox="0 0 107 29">
  <defs>
    <style>
      .cls-1 {
        fill: url(#Degradado_sin_nombre_16);
      }

      .cls-2 {
        fill: url(#Degradado_sin_nombre_17);
      }

      .cls-3 {
        fill: #6d6d6d;
      }

      .cls-4 {
        fill: #7f7f7f;
      }

      .cls-5 {
        fill: url(#Degradado_sin_nombre_15);
      }

      .cls-6 {
        fill: url(#Degradado_sin_nombre_8);
      }
    </style>
    <linearGradient id="Degradado_sin_nombre_17" data-name="Degradado sin nombre 17" x1="-596.1" y1="385.3" x2="-595.4" y2="385.7" gradientTransform="translate(11331.6 11011.7) scale(19 -28.5)" gradientUnits="userSpaceOnUse">
      <stop offset="0" stop-color="#a0a0a0"/>
      <stop offset=".4" stop-color="#6d6d6d"/>
    </linearGradient>
    <linearGradient id="Degradado_sin_nombre_15" data-name="Degradado sin nombre 15" x1="-565.7" y1="347.7" x2="-564.7" y2="347.7" gradientTransform="translate(5639.3 2544) scale(9.9 -7.3)" gradientUnits="userSpaceOnUse">
      <stop offset="0" stop-color="#a0a0a0"/>
      <stop offset=".4" stop-color="#6d6d6d"/>
    </linearGradient>
    <radialGradient id="Degradado_sin_nombre_16" data-name="Degradado sin nombre 16" cx="-590.6" cy="376.3" fx="-590.6" fy="376.3" r="1.1" gradientTransform="translate(11456.5 714) rotate(-27.7) scale(16.6 -15.8)" gradientUnits="userSpaceOnUse">
      <stop offset=".4" stop-color="#6d6d6d"/>
      <stop offset="1" stop-color="#a0a0a0"/>
    </radialGradient>
    <linearGradient id="Degradado_sin_nombre_8" data-name="Degradado sin nombre 8" x1="-595.9" y1="378.9" x2="-594.9" y2="378.9" gradientTransform="translate(11331.6 7134) scale(19 -18.8)" gradientUnits="userSpaceOnUse">
      <stop offset="0" stop-color="#a0a0a0"/>
      <stop offset="1" stop-color="#6d6d6d"/>
    </linearGradient>
  </defs>
  <!-- Generator: Adobe Illustrator 28.7.1, SVG Export Plug-In . SVG Version: 1.2.0 Build 142)  -->
  <g>
    <g id="Capa_1">
      <g id="Mobile-version">
        <g id="_x2D_Proposal-B-_x28_R_x29_-5">
          <g id="Group-4">
            <g id="Logos-_x2F_-Truora-_x2F_-_x5F_Main">
              <g id="Logos-_x2F_-Truora-_x2F_-T-Color">
                <g>
                  <path id="Path" class="cls-2" d="M19,0h0c-5.1,0-9.2,4.1-9.4,9.2h0v19.3c3.9,0,7.4-2.4,8.9-6.1h-.3c-2.1,0-3.9-1.2-4.9-3-.9-1.8-.7-4,.5-5.7,1.2-1.7,3.3-2.5,5.3-2.2v-2.1h0C24.3,9.5,28.5,5.2,28.5,0h-9.5Z"/>
                  <path id="Path-2" data-name="Path" class="cls-5" d="M17.7,19.9l-1.6-1.5c-.4-.4-.6-.9-.6-1.4,0-.5.2-1,.5-1.4h0l1.8,1.7,4.8-4.1c.8-.7,2.1-.6,2.8.2h0l-7.7,6.6Z"/>
                  <path id="Path-3" data-name="Path" class="cls-4" d="M9.5,0h0C4.3,0,0,4.3,0,9.5h18.8V0h-9.4Z"/>
                  <path id="sombra" class="cls-1" d="M12.6,16.6s0-.3,0-.6c0-.2.1-.5.2-.8.1-.5.4-1,.7-1.4.2-.2.3-.4.5-.6.1-.1.2-.3.4-.4.2-.2.4-.3.6-.4.6-.4,1.1-.6,1.7-.8.3,0,.7-.2,1.3-.2.1,0,.3,0,.5,0,0,0,.2,0,.4,0,0-1.4,0-2,0-2,.8-1.1,3.2-.7,3.8-1,.1,0,0-.7,0-1.1C22.8,4.4,21.3,1.7,19,0,17.4,0,11.8,0,9.3,0c-.3,0-.8,0-1,0-2.3,1.7-3.7,4.4-3.7,7.4s.2,1.4.7,2h4.3v6.1c1.1.6,2.1.9,2.9,1,0,0,.1,0,.2,0Z"/>
                  <path id="Path-4" data-name="Path" class="cls-6" d="M19,0h0c-5.1,0-9.2,4.1-9.4,9.2v9.6c0-5.1,4.1-9.3,9.2-9.3h.3C24.3,9.5,28.5,5.2,28.5,0h-9.5Z"/>
                </g>
              </g>
              <g id="Group">
                <path id="Path-5" data-name="Path" class="cls-3" d="M43.8,8.5h-2.2v11c0,2-1.6,3.6-3.6,3.6h0v-14.5h-5.5c0-1.8,1.5-3.3,3.3-3.3h11.3c0,1.8-1.5,3.3-3.3,3.3Z"/>
                <path id="Path-6" data-name="Path" class="cls-3" d="M55.7,10.6l-.5,3.3c-.6-.3-1.3-.4-2-.4-1.5,0-2.6.9-2.6,2.8v3.4c0,.9-.3,1.7-1,2.3s-1.5,1-2.3,1h0v-12.3h3.2v1.3c.8-1.2,2-1.7,3.5-1.7.6,0,1.2,0,1.7.3Z"/>
                <path id="Path-7" data-name="Path" class="cls-3" d="M93.1,10.6l-.5,3.3c-.6-.3-1.3-.4-2-.4-1.5,0-2.6.9-2.6,2.8v3.4c0,.9-.3,1.7-1,2.3s-1.5,1-2.3,1h0v-12.3h3.2v1.3c.8-1.2,2-1.7,3.5-1.7.6,0,1.2,0,1.7.3h0Z"/>
                <path id="Path-8" data-name="Path" class="cls-3" d="M68.7,17.8c0,3.9-2.7,5.6-5.8,5.6s-5.8-1.7-5.8-5.6v-7.1h3.3v6.8c0,2,1.1,2.8,2.5,2.8s2.5-.8,2.5-2.8v-6.8h3.3v7.1Z"/>
                <path id="Shape" class="cls-3" d="M106.5,23h-3.2v-1.4c-.9,1.1-2.3,1.7-3.7,1.7-3.4,0-6-2.8-6-6.5s2.6-6.5,6-6.5c1.4,0,2.8.6,3.7,1.7h0c0-.8.6-1.4,1.4-1.4h1.9v12.3ZM97,16.8c0,1.9,1.2,3.4,3.2,3.4s3.2-1.4,3.2-3.4-1.3-3.4-3.2-3.4-3.2,1.5-3.2,3.4h0Z"/>
                <path id="Shape-2" data-name="Shape" class="cls-3" d="M76.7,10.5c.9,0,1.7.2,2.5.5.8.3,1.5.8,2.1,1.4.6.6,1.1,1.3,1.4,2.1.3.8.5,1.7.5,2.5,0,.9-.2,1.7-.5,2.5-.3.8-.8,1.5-1.4,2.1-.6.6-1.3,1.1-2.1,1.4-1.6.7-3.4.7-5,0-.8-.3-1.5-.8-2-1.4-.6-.6-1.1-1.3-1.4-2.1-.3-.8-.5-1.6-.5-2.5,0-.9.2-1.7.5-2.5.3-.8.8-1.5,1.4-2.1.6-.6,1.3-1.1,2-1.4.8-.3,1.7-.5,2.5-.5ZM76.7,13.5c-.9,0-1.8.3-2.4,1-.7.6-1,1.5-1,2.4,0,.4,0,.9.3,1.3.2.4.4.8.7,1.1.6.7,1.5,1,2.4,1,.4,0,.9,0,1.3-.3.4-.2.8-.4,1.1-.8,1-1,1.3-2.5.7-3.7-.5-1.3-1.8-2.1-3.2-2.1h0Z"/>
              </g>
            </g>
          </g>
        </g>
      </g>
    </g>
  </g>
</svg>