<?xml version="1.0" standalone="no"?>
<!DOCTYPE svg PUBLIC "-//W3C//DTD SVG 20010904//EN"
 "http://www.w3.org/TR/2001/REC-SVG-20010904/DTD/svg10.dtd">
<svg version="1.0" xmlns="http://www.w3.org/2000/svg"
 width="512.000000pt" height="512.000000pt" viewBox="0 0 512.000000 512.000000"
 preserveAspectRatio="xMidYMid meet">

<g transform="translate(0.000000,512.000000) scale(0.100000,-0.100000)"
fill="#000000" stroke="none">
<path d="M2360 4099 c-384 -44 -716 -207 -938 -463 -313 -359 -437 -944 -321
-1519 104 -519 414 -894 870 -1055 408 -144 945 -129 1331 38 51 22 97 40 101
40 5 0 125 -92 267 -205 143 -113 263 -205 268 -205 11 0 246 295 250 313 2
10 -271 236 -427 353 -12 10 -7 21 35 75 139 176 221 346 278 577 43 173 51
254 51 497 -1 192 -4 250 -22 350 -29 159 -64 277 -120 405 -201 456 -608 740
-1145 799 -112 13 -368 12 -478 0z m701 -502 c188 -49 294 -127 362 -267 85
-173 111 -388 104 -862 -7 -481 -32 -620 -123 -663 -83 -39 -153 -6 -409 198
-101 81 -191 150 -197 152 -12 4 -241 -276 -254 -309 -3 -8 68 -72 185 -165
195 -154 208 -169 182 -210 -14 -21 -95 -29 -296 -30 -415 -2 -625 48 -756
179 -91 90 -133 189 -171 397 -21 119 -23 155 -23 518 0 363 2 399 23 518 38
211 80 307 176 402 68 68 136 104 254 136 118 33 193 38 532 35 300 -3 320 -5
411 -29z"/>
<path d="M3844 4032 c-60 -38 -82 -137 -44 -199 28 -47 63 -66 123 -66 103 -1
152 51 145 155 -4 50 -9 64 -36 90 -27 28 -39 32 -94 36 -49 2 -70 -1 -94 -16z
m168 -42 c13 -16 18 -39 18 -86 0 -86 -17 -104 -100 -104 -81 0 -110 26 -110
99 0 98 25 123 119 117 42 -2 59 -8 73 -26z"/>
<path d="M3862 3908 c2 -66 6 -83 18 -83 10 0 16 12 18 33 3 29 6 33 30 30 21
-2 28 -10 32 -33 7 -41 36 -41 32 0 -2 16 -8 35 -13 41 -7 8 -6 13 2 16 16 5
14 58 -2 69 -8 5 -38 9 -67 9 l-53 0 3 -82z m98 33 c0 -11 -9 -21 -22 -24 -27
-8 -38 -1 -38 24 0 14 7 19 30 19 23 0 30 -5 30 -19z"/>
</g>
</svg>
